<?xml version="1.0" encoding="UTF-8"?>
<mxfile host="app.diagrams.net">
  <diagram name="Fluxograma PCM" id="h3TS9b2fQn6yE0gkqk4N">
    <mxGraphModel dx="842" dy="476" grid="1" gridSize="10" guides="1" tooltips="1" connect="1" arrows="1" fold="1" page="1" pageScale="1" pageWidth="827" pageHeight="1169" math="0" shadow="0">
      <root>
        <mxCell id="0"/>
        <mxCell id="1" parent="0"/>
        
        <!-- Início -->
        <mxCell id="2" value="Início" style="ellipse;html=1;fillColor=#1976D2;strokeColor=#0D47A1;fontColor=#FFFFFF;fontSize=14;fontStyle=1;" vertex="1" parent="1">
          <mxGeometry x="380" y="60" width="100" height="60" as="geometry"/>
        </mxCell>
        
        <!-- Sinais/sintomas e epidemiologia -->
        <mxCell id="3" value="Sinais ou sintomas e epidemiologia compatíveis" style="rhombus;whiteSpace=wrap;html=1;fillColor=#FBC02D;strokeColor=#F9A825;fontColor=#000000;fontSize=13;" vertex="1" parent="1">
          <mxGeometry x="355" y="150" width="150" height="80" as="geometry"/>
        </mxCell>
        
        <!-- Coleta -->
        <mxCell id="4" value="Coleta de amostras clínicas" style="rounded=1;whiteSpace=wrap;html=1;fillColor=#90CAF9;strokeColor=#1976D2;fontColor=#000000;fontSize=13;" vertex="1" parent="1">
          <mxGeometry x="355" y="260" width="150" height="50" as="geometry"/>
        </mxCell>
        
        <!-- Considerar outros diagnósticos -->
        <mxCell id="5" value="Considerar outros diagnósticos" style="rounded=1;whiteSpace=wrap;html=1;fillColor=#EEEEEE;strokeColor=#BDBDBD;fontColor=#000000;fontSize=13;" vertex="1" parent="1">
          <mxGeometry x="540" y="150" width="160" height="50" as="geometry"/>
        </mxCell>
        
        <!-- Tipo de material coletado -->
        <mxCell id="6" value="Tipo de material coletado" style="rhombus;whiteSpace=wrap;html=1;fillColor=#FBC02D;strokeColor=#F9A825;fontColor=#000000;fontSize=13;" vertex="1" parent="1">
          <mxGeometry x="355" y="340" width="150" height="80" as="geometry"/>
        </mxCell>
        
        <!-- Microscopia direta KOH escarro -->
        <mxCell id="7" value="Microscopia direta KOH escarro" style="rounded=1;whiteSpace=wrap;html=1;fillColor=#90CAF9;strokeColor=#1976D2;fontColor=#000000;fontSize=13;" vertex="1" parent="1">
          <mxGeometry x="140" y="440" width="180" height="50" as="geometry"/>
        </mxCell>
        
        <!-- Microscopia direta KOH lesão -->
        <mxCell id="8" value="Microscopia direta KOH lesão" style="rounded=1;whiteSpace=wrap;html=1;fillColor=#90CAF9;strokeColor=#1976D2;fontColor=#000000;fontSize=13;" vertex="1" parent="1">
          <mxGeometry x="355" y="440" width="180" height="50" as="geometry"/>
        </mxCell>
        
        <!-- Histopatologia tecido -->
        <mxCell id="9" value="Histopatologia tecido" style="rounded=1;whiteSpace=wrap;html=1;fillColor=#90CAF9;strokeColor=#1976D2;fontColor=#000000;fontSize=13;" vertex="1" parent="1">
          <mxGeometry x="570" y="440" width="180" height="50" as="geometry"/>
        </mxCell>
        
        <!-- Sorologia ou PCR sangue -->
        <mxCell id="10" value="Sorologia ou PCR sangue" style="rounded=1;whiteSpace=wrap;html=1;fillColor=#90CAF9;strokeColor=#1976D2;fontColor=#000000;fontSize=13;" vertex="1" parent="1">
          <mxGeometry x="785" y="440" width="180" height="50" as="geometry"/>
        </mxCell>
        
        <!-- Microscopia direta positiva? -->
        <mxCell id="11" value="Microscopia direta positiva?" style="rhombus;whiteSpace=wrap;html=1;fillColor=#FBC02D;strokeColor=#F9A825;fontColor=#000000;fontSize=13;" vertex="1" parent="1">
          <mxGeometry x="250" y="510" width="180" height="80" as="geometry"/>
        </mxCell>
        
        <!-- Diagnóstico PCM confirmado -->
        <mxCell id="12" value="Diagnóstico PCM confirmado" style="rounded=1;whiteSpace=wrap;html=1;fillColor=#388E3C;strokeColor=#1B5E20;fontColor=#FFFFFF;fontSize=13;fontStyle=1;" vertex="1" parent="1">
          <mxGeometry x="250" y="730" width="180" height="50" as="geometry"/>
        </mxCell>
        
        <!-- Realizar cultura -->
        <mxCell id="13" value="Realizar cultura" style="rounded=1;whiteSpace=wrap;html=1;fillColor=#90CAF9;strokeColor=#1976D2;fontColor=#000000;fontSize=13;" vertex="1" parent="1">
          <mxGeometry x="460" y="610" width="150" height="50" as="geometry"/>
        </mxCell>
        
        <!-- Histopatologia positiva? -->
        <mxCell id="14" value="Histopatologia positiva?" style="rhombus;whiteSpace=wrap;html=1;fillColor=#FBC02D;strokeColor=#F9A825;fontColor=#000000;fontSize=13;" vertex="1" parent="1">
          <mxGeometry x="580" y="510" width="180" height="80" as="geometry"/>
        </mxCell>
        
        <!-- Cultura ou PCR se adequado -->
        <mxCell id="15" value="Cultura ou PCR se adequado" style="rounded=1;whiteSpace=wrap;html=1;fillColor=#90CAF9;strokeColor=#1976D2;fontColor=#000000;fontSize=13;" vertex="1" parent="1">
          <mxGeometry x="580" y="610" width="180" height="50" as="geometry"/>
        </mxCell>
        
        <!-- Sorologia reagente? -->
        <mxCell id="16" value="Sorologia reagente?" style="rhombus;whiteSpace=wrap;html=1;fillColor=#FBC02D;strokeColor=#F9A825;fontColor=#000000;fontSize=13;" vertex="1" parent="1">
          <mxGeometry x="890" y="510" width="150" height="80" as="geometry"/>
        </mxCell>
        
        <!-- PCR positiva? -->
        <mxCell id="17" value="PCR positiva?" style="rhombus;whiteSpace=wrap;html=1;fillColor=#FBC02D;strokeColor=#F9A825;fontColor=#000000;fontSize=13;" vertex="1" parent="1">
          <mxGeometry x="785" y="610" width="150" height="80" as="geometry"/>
        </mxCell>
        
        <!-- Aguardar cultura -->
        <mxCell id="18" value="Aguardar cultura" style="rounded=1;whiteSpace=wrap;html=1;fillColor=#90CAF9;strokeColor=#1976D2;fontColor=#000000;fontSize=13;" vertex="1" parent="1">
          <mxGeometry x="460" y="690" width="150" height="50" as="geometry"/>
        </mxCell>
        
        <!-- Cultura positiva? -->
        <mxCell id="19" value="Cultura positiva?" style="rhombus;whiteSpace=wrap;html=1;fillColor=#FBC02D;strokeColor=#F9A825;fontColor=#000000;fontSize=13;" vertex="1" parent="1">
          <mxGeometry x="460" y="760" width="150" height="80" as="geometry"/>
        </mxCell>
        
        <!-- Outros diagnósticos ou repetir exames -->
        <mxCell id="20" value="Outros diagnósticos ou repetir exames" style="rounded=1;whiteSpace=wrap;html=1;fillColor=#EEEEEE;strokeColor=#BDBDBD;fontColor=#000000;fontSize=13;" vertex="1" parent="1">
          <mxGeometry x="630" y="850" width="200" height="50" as="geometry"/>
        </mxCell>
        
        <!-- Iniciar tratamento e acompanhamento -->
        <mxCell id="21" value="Iniciar tratamento e acompanhamento" style="rounded=1;whiteSpace=wrap;html=1;fillColor=#388E3C;strokeColor=#1B5E20;fontColor=#FFFFFF;fontSize=13;fontStyle=1;" vertex="1" parent="1">
          <mxGeometry x="250" y="810" width="180" height="50" as="geometry"/>
        </mxCell>
        
        <!-- Fim -->
        <mxCell id="22" value="Fim" style="ellipse;html=1;fillColor=#1976D2;strokeColor=#0D47A1;fontColor=#FFFFFF;fontSize=14;fontStyle=1;" vertex="1" parent="1">
          <mxGeometry x="250" y="900" width="100" height="60" as="geometry"/>
        </mxCell>
        
        <!-- PCR ou investigar outros diagnósticos -->
        <mxCell id="23" value="PCR ou investigar outros diagnósticos" style="rounded=1;whiteSpace=wrap;html=1;fillColor=#EEEEEE;strokeColor=#BDBDBD;fontColor=#000000;fontSize=13;" vertex="1" parent="1">
          <mxGeometry x="920" y="700" width="200" height="50" as="geometry"/>
        </mxCell>
        
        <!-- Ligações -->
        <mxCell id="24" style="edgeStyle=orthogonalEdgeStyle;rounded=0;jettySize=auto;html=1;endArrow=block;strokeColor=#1976D2;" edge="1" parent="1" source="2" target="3"/>
        <mxCell id="25" value="Sim" style="edgeStyle=orthogonalEdgeStyle;rounded=0;jettySize=auto;html=1;endArrow=block;strokeColor=#388E3C;fontColor=#388E3C;" edge="1" parent="1" source="3" target="4"/>
        <mxCell id="26" value="Não" style="edgeStyle=orthogonalEdgeStyle;rounded=0;jettySize=auto;html=1;endArrow=block;strokeColor=#D32F2F;fontColor=#D32F2F;" edge="1" parent="1" source="3" target="5"/>
        <mxCell id="27" style="edgeStyle=orthogonalEdgeStyle;rounded=0;jettySize=auto;html=1;endArrow=block;strokeColor=#1976D2;" edge="1" parent="1" source="4" target="6"/>
        
        <mxCell id="28" value="Escarro ou secreções" style="edgeStyle=orthogonalEdgeStyle;rounded=0;jettySize=auto;html=1;endArrow=block;strokeColor=#1976D2;" edge="1" parent="1" source="6" target="7"/>
        <mxCell id="29" value="Lesão" style="edgeStyle=orthogonalEdgeStyle;rounded=0;jettySize=auto;html=1;endArrow=block;strokeColor=#1976D2;" edge="1" parent="1" source="6" target="8"/>
        <mxCell id="30" value="Tecido" style="edgeStyle=orthogonalEdgeStyle;rounded=0;jettySize=auto;html=1;endArrow=block;strokeColor=#1976D2;" edge="1" parent="1" source="6" target="9"/>
        <mxCell id="31" value="Sangue" style="edgeStyle=orthogonalEdgeStyle;rounded=0;jettySize=auto;html=1;endArrow=block;strokeColor=#1976D2;" edge="1" parent="1" source="6" target="10"/>
        
        <mxCell id="32" style="edgeStyle=orthogonalEdgeStyle;rounded=0;jettySize=auto;html=1;endArrow=block;strokeColor=#1976D2;" edge="1" parent="1" source="7" target="11"/>
        <mxCell id="33" style="edgeStyle=orthogonalEdgeStyle;rounded=0;jettySize=auto;html=1;endArrow=block;strokeColor=#1976D2;" edge="1" parent="1" source="8" target="11"/>
        <mxCell id="34" value="Sim" style="edgeStyle=orthogonalEdgeStyle;rounded=0;jettySize=auto;html=1;endArrow=block;strokeColor=#388E3C;fontColor=#388E3C;" edge="1" parent="1" source="11" target="12"/>
        <mxCell id="35" value="Não" style="edgeStyle=orthogonalEdgeStyle;rounded=0;jettySize=auto;html=1;endArrow=block;strokeColor=#D32F2F;fontColor=#D32F2F;" edge="1" parent="1" source="11" target="13"/>
        
        <mxCell id="36" style="edgeStyle=orthogonalEdgeStyle;rounded=0;jettySize=auto;html=1;endArrow=block;strokeColor=#1976D2;" edge="1" parent="1" source="9" target="14"/>
        <mxCell id="37" value="Sim" style="edgeStyle=orthogonalEdgeStyle;rounded=0;jettySize=auto;html=1;endArrow=block;strokeColor=#388E3C;fontColor=#388E3C;" edge="1" parent="1" source="14" target="12"/>
        <mxCell id="38" value="Não" style="edgeStyle=orthogonalEdgeStyle;rounded=0;jettySize=auto;html=1;endArrow=block;strokeColor=#D32F2F;fontColor=#D32F2F;" edge="1" parent="1" source="14" target="15"/>
        <mxCell id="39" style="edgeStyle=orthogonalEdgeStyle;rounded=0;jettySize=auto;html=1;endArrow=block;strokeColor=#1976D2;" edge="1" parent="1" source="15" target="13"/>
        <mxCell id="40" style="edgeStyle=orthogonalEdgeStyle;rounded=0;jettySize=auto;html=1;endArrow=block;strokeColor=#1976D2;" edge="1" parent="1" source="15" target="17"/>
        
        <mxCell id="41" style="edgeStyle=orthogonalEdgeStyle;rounded=0;jettySize=auto;html=1;endArrow=block;strokeColor=#1976D2;" edge="1" parent="1" source="10" target="16"/>
        <mxCell id="42" value="Sim" style="edgeStyle=orthogonalEdgeStyle;rounded=0;jettySize=auto;html=1;endArrow=block;strokeColor=#388E3C;fontColor=#388E3C;" edge="1" parent="1" source="16" target="12"/>
        <mxCell id="43" value="Não" style="edgeStyle=orthogonalEdgeStyle;rounded=0;jettySize=auto;html=1;endArrow=block;strokeColor=#D32F2F;fontColor=#D32F2F;" edge="1" parent="1" source="16" target="23"/>
        <mxCell id="44" style="edgeStyle=orthogonalEdgeStyle;rounded=0;jettySize=auto;html=1;endArrow=block;strokeColor=#1976D2;" edge="1" parent="1" source="10" target="17"/>
        <mxCell id="45" value="Sim" style="edgeStyle=orthogonalEdgeStyle;rounded=0;jettySize=auto;html=1;endArrow=block;strokeColor=#388E3C;fontColor=#388E3C;" edge="1" parent="1" source="17" target="12"/>
        <mxCell id="46" value="Não" style="edgeStyle=orthogonalEdgeStyle;rounded=0;jettySize=auto;html=1;endArrow=block;strokeColor=#D32F2F;fontColor=#D32F2F;" edge="1" parent="1" source="17" target="23"/>
        
        <mxCell id="47" style="edgeStyle=orthogonalEdgeStyle;rounded=0;jettySize=auto;html=1;endArrow=block;strokeColor=#1976D2;" edge="1" parent="1" source="13" target="18"/>
        <mxCell id="48" style="edgeStyle=orthogonalEdgeStyle;rounded=0;jettySize=auto;html=1;endArrow=block;strokeColor=#1976D2;" edge="1" parent="1" source="18" target="19"/>
        <mxCell id="49" value="Sim" style="edgeStyle=orthogonalEdgeStyle;rounded=0;jettySize=auto;html=1;endArrow=block;strokeColor=#388E3C;fontColor=#388E3C;" edge="1" parent="1" source="19" target="12"/>
        <mxCell id="50" value="Não" style="edgeStyle=orthogonalEdgeStyle;rounded=0;jettySize=auto;html=1;endArrow=block;strokeColor=#D32F2F;fontColor=#D32F2F;" edge="1" parent="1" source="19" target="20"/>
        <mxCell id="51" style="edgeStyle=orthogonalEdgeStyle;rounded=0;jettySize=auto;html=1;endArrow=block;strokeColor=#388E3C;" edge="1" parent="1" source="12" target="21"/>
        <mxCell id="52" style="edgeStyle=orthogonalEdgeStyle;rounded=0;jettySize=auto;html=1;endArrow=block;strokeColor=#1976D2;" edge="1" parent="1" source="21" target="22"/>
        <mxCell id="53" style="edgeStyle=orthogonalEdgeStyle;rounded=0;jettySize=auto;html=1;endArrow=block;strokeColor=#1976D2;" edge="1" parent="1" source="5" target="22"/>
        <mxCell id="54" style="edgeStyle=orthogonalEdgeStyle;rounded=0;jettySize=auto;html=1;endArrow=block;strokeColor=#1976D2;" edge="1" parent="1" source="23" target="22"/>
        <mxCell id="55" style="edgeStyle=orthogonalEdgeStyle;rounded=0;jettySize=auto;html=1;endArrow=block;strokeColor=#1976D2;" edge="1" parent="1" source="20" target="22"/>

      </root>
    </mxGraphModel>
  </diagram>
</mxfile>